<mxfile host="Electron" agent="Mozilla/5.0 (Windows NT 10.0; Win64; x64) AppleWebKit/537.36 (KHTML, like Gecko) draw.io/24.7.5 Chrome/126.0.6478.183 Electron/31.3.0 Safari/537.36" version="24.7.5">
  <diagram name="Page-1" id="38b20595-45e3-9b7f-d5ca-b57f44c5b66d">
    <mxGraphModel dx="4620" dy="2096" grid="1" gridSize="10" guides="1" tooltips="1" connect="1" arrows="1" fold="1" page="1" pageScale="1" pageWidth="1100" pageHeight="850" background="none" math="0" shadow="0">
      <root>
        <mxCell id="0" />
        <mxCell id="VVLcE_FTVynFnDO5Wv3X-4" value="Did" style="locked=1;" parent="0" />
        <mxCell id="VVLcE_FTVynFnDO5Wv3X-5" value="" style="group" parent="VVLcE_FTVynFnDO5Wv3X-4" vertex="1" connectable="0">
          <mxGeometry x="-550" y="940" width="2500" height="1230" as="geometry" />
        </mxCell>
        <mxCell id="VVLcE_FTVynFnDO5Wv3X-6" value="frua" style="verticalLabelPosition=bottom;verticalAlign=top;html=1;shape=mxgraph.basic.patternFillRect;fillStyle=hor;step=5;fillStrokeWidth=0.2;fillStrokeColor=#dddddd;fillColor=#008a00;strokeColor=#005700;fontColor=#ffffff;" parent="VVLcE_FTVynFnDO5Wv3X-5" vertex="1">
          <mxGeometry x="1100" width="1400" height="950" as="geometry" />
        </mxCell>
        <mxCell id="VVLcE_FTVynFnDO5Wv3X-7" value="" style="verticalLabelPosition=bottom;verticalAlign=top;html=1;shape=mxgraph.basic.patternFillRect;fillStyle=hor;step=5;fillStrokeWidth=0.2;fillStrokeColor=#dddddd;fillColor=#a20025;strokeColor=#6F0000;fontColor=#ffffff;" parent="VVLcE_FTVynFnDO5Wv3X-5" vertex="1">
          <mxGeometry x="990" y="330" width="860.14" height="900" as="geometry" />
        </mxCell>
        <mxCell id="VVLcE_FTVynFnDO5Wv3X-8" value="" style="verticalLabelPosition=bottom;verticalAlign=top;html=1;shape=mxgraph.basic.patternFillRect;fillStyle=hor;step=5;fillStrokeWidth=0.2;fillStrokeColor=#dddddd;fillColor=#a20025;strokeColor=#6F0000;fontColor=#ffffff;" parent="VVLcE_FTVynFnDO5Wv3X-5" vertex="1">
          <mxGeometry x="590" width="860.14" height="1230" as="geometry" />
        </mxCell>
        <mxCell id="VVLcE_FTVynFnDO5Wv3X-9" value="frua" style="verticalLabelPosition=bottom;verticalAlign=top;html=1;shape=mxgraph.basic.patternFillRect;fillStyle=hor;step=5;fillStrokeWidth=0.2;fillStrokeColor=#dddddd;fillColor=#a20025;strokeColor=#6F0000;fontColor=#ffffff;" parent="VVLcE_FTVynFnDO5Wv3X-5" vertex="1">
          <mxGeometry width="1100" height="1230" as="geometry" />
        </mxCell>
        <mxCell id="VVLcE_FTVynFnDO5Wv3X-125" style="edgeStyle=orthogonalEdgeStyle;rounded=0;orthogonalLoop=1;jettySize=auto;html=1;exitX=0.5;exitY=1;exitDx=0;exitDy=0;exitPerimeter=0;" parent="VVLcE_FTVynFnDO5Wv3X-5" source="VVLcE_FTVynFnDO5Wv3X-124" edge="1">
          <mxGeometry relative="1" as="geometry">
            <mxPoint x="2174" y="1270" as="targetPoint" />
          </mxGeometry>
        </mxCell>
        <mxCell id="VVLcE_FTVynFnDO5Wv3X-124" value="" style="verticalLabelPosition=bottom;verticalAlign=top;html=1;shape=mxgraph.basic.patternFillRect;fillStyle=diag;step=5;fillStrokeWidth=0.2;fillStrokeColor=#dddddd;fillColor=#a0522d;fontColor=#ffffff;strokeColor=#6D1F00;" parent="VVLcE_FTVynFnDO5Wv3X-5" vertex="1">
          <mxGeometry x="1850.14" y="950" width="649.86" height="280" as="geometry" />
        </mxCell>
        <mxCell id="VVLcE_FTVynFnDO5Wv3X-77" value="" style="shape=ext;double=1;whiteSpace=wrap;html=1;aspect=fixed;" parent="VVLcE_FTVynFnDO5Wv3X-5" vertex="1">
          <mxGeometry x="1540" y="370" width="220" height="220" as="geometry" />
        </mxCell>
        <mxCell id="VVLcE_FTVynFnDO5Wv3X-75" value="" style="shape=collate;whiteSpace=wrap;html=1;" parent="VVLcE_FTVynFnDO5Wv3X-5" vertex="1">
          <mxGeometry x="1530" y="60" width="220" height="220" as="geometry" />
        </mxCell>
        <mxCell id="VVLcE_FTVynFnDO5Wv3X-76" value="" style="shape=collate;whiteSpace=wrap;html=1;rotation=90;" parent="VVLcE_FTVynFnDO5Wv3X-5" vertex="1">
          <mxGeometry x="1530" y="60" width="220" height="220" as="geometry" />
        </mxCell>
        <mxCell id="VVLcE_FTVynFnDO5Wv3X-126" value="&lt;p style=&quot;line-height: 300%;&quot;&gt;&lt;font style=&quot;font-size: 40px;&quot;&gt;Outros&lt;/font&gt;&lt;/p&gt;" style="text;strokeColor=none;fillColor=none;html=1;fontSize=24;fontStyle=1;verticalAlign=middle;align=center;strokeWidth=5;" parent="VVLcE_FTVynFnDO5Wv3X-4" vertex="1">
          <mxGeometry x="1580" y="2220" width="100" height="40" as="geometry" />
        </mxCell>
        <mxCell id="VVLcE_FTVynFnDO5Wv3X-127" value="&lt;p style=&quot;line-height: 300%;&quot;&gt;&lt;font style=&quot;font-size: 40px;&quot;&gt;Legumes&lt;/font&gt;&lt;/p&gt;" style="text;strokeColor=none;fillColor=none;html=1;fontSize=24;fontStyle=1;verticalAlign=middle;align=center;strokeWidth=5;" parent="VVLcE_FTVynFnDO5Wv3X-4" vertex="1">
          <mxGeometry x="1200" y="860" width="100" height="40" as="geometry" />
        </mxCell>
        <mxCell id="VVLcE_FTVynFnDO5Wv3X-128" value="&lt;p style=&quot;line-height: 300%;&quot;&gt;&lt;font style=&quot;font-size: 40px;&quot;&gt;Frutas&lt;/font&gt;&lt;/p&gt;" style="text;strokeColor=none;fillColor=none;html=1;fontSize=24;fontStyle=1;verticalAlign=middle;align=center;strokeWidth=5;" parent="VVLcE_FTVynFnDO5Wv3X-4" vertex="1">
          <mxGeometry x="-50" y="860" width="100" height="40" as="geometry" />
        </mxCell>
        <mxCell id="1" style="locked=1;" parent="0" />
        <mxCell id="vXDlV2dU8aSiVZa4WpJ0-219" style="edgeStyle=orthogonalEdgeStyle;rounded=0;orthogonalLoop=1;jettySize=auto;html=1;exitX=0.5;exitY=0;exitDx=0;exitDy=0;exitPerimeter=0;" parent="1" edge="1">
          <mxGeometry relative="1" as="geometry">
            <mxPoint y="910" as="targetPoint" />
            <mxPoint y="940" as="sourcePoint" />
          </mxGeometry>
        </mxCell>
        <mxCell id="48ef80bc37b76060-136" value="" style="verticalLabelPosition=bottom;html=1;verticalAlign=top;align=center;strokeWidth=1;shape=mxgraph.floorplan.doorDouble;rounded=0;shadow=0;comic=0;fontFamily=Verdana;fontSize=12;rotation=-180;" parent="1" vertex="1">
          <mxGeometry x="-1090" y="2265" width="340" height="180" as="geometry" />
        </mxCell>
        <mxCell id="VVLcE_FTVynFnDO5Wv3X-10" value="Bananas" style="locked=1;" parent="0" />
        <mxCell id="VVLcE_FTVynFnDO5Wv3X-11" value="" style="ellipse;whiteSpace=wrap;html=1;aspect=fixed;" parent="VVLcE_FTVynFnDO5Wv3X-10" vertex="1">
          <mxGeometry x="630" y="1620" width="180" height="180" as="geometry" />
        </mxCell>
        <mxCell id="VVLcE_FTVynFnDO5Wv3X-12" value="Frutas Pequenas" style="locked=1;" parent="0" />
        <mxCell id="VVLcE_FTVynFnDO5Wv3X-13" value="" style="rounded=0;whiteSpace=wrap;html=1;fillColor=#f5f5f5;fontColor=#333333;strokeColor=#666666;" parent="VVLcE_FTVynFnDO5Wv3X-12" vertex="1">
          <mxGeometry x="-400" y="1100" width="50" height="40" as="geometry" />
        </mxCell>
        <mxCell id="VVLcE_FTVynFnDO5Wv3X-14" value="" style="shape=or;whiteSpace=wrap;html=1;rotation=-180;" parent="VVLcE_FTVynFnDO5Wv3X-12" vertex="1">
          <mxGeometry x="-470" y="980" width="70" height="160" as="geometry" />
        </mxCell>
        <mxCell id="VVLcE_FTVynFnDO5Wv3X-15" value="" style="shape=or;whiteSpace=wrap;html=1;rotation=0;" parent="VVLcE_FTVynFnDO5Wv3X-12" vertex="1">
          <mxGeometry x="-80" y="980" width="70" height="160" as="geometry" />
        </mxCell>
        <mxCell id="VVLcE_FTVynFnDO5Wv3X-16" value="" style="rounded=0;whiteSpace=wrap;html=1;" parent="VVLcE_FTVynFnDO5Wv3X-12" vertex="1">
          <mxGeometry x="-400" y="1020" width="50" height="80" as="geometry" />
        </mxCell>
        <mxCell id="VVLcE_FTVynFnDO5Wv3X-17" value="" style="edgeStyle=orthogonalEdgeStyle;rounded=0;orthogonalLoop=1;jettySize=auto;html=1;" parent="VVLcE_FTVynFnDO5Wv3X-12" source="VVLcE_FTVynFnDO5Wv3X-20" edge="1">
          <mxGeometry relative="1" as="geometry">
            <mxPoint x="-180" y="1060" as="targetPoint" />
          </mxGeometry>
        </mxCell>
        <mxCell id="VVLcE_FTVynFnDO5Wv3X-18" value="" style="rounded=0;whiteSpace=wrap;html=1;" parent="VVLcE_FTVynFnDO5Wv3X-12" vertex="1">
          <mxGeometry x="-350" y="1020" width="50" height="80" as="geometry" />
        </mxCell>
        <mxCell id="VVLcE_FTVynFnDO5Wv3X-19" value="" style="edgeStyle=orthogonalEdgeStyle;rounded=0;orthogonalLoop=1;jettySize=auto;html=1;" parent="VVLcE_FTVynFnDO5Wv3X-12" source="VVLcE_FTVynFnDO5Wv3X-18" edge="1">
          <mxGeometry relative="1" as="geometry">
            <mxPoint x="-300" y="1060" as="sourcePoint" />
            <mxPoint x="-280" y="1060" as="targetPoint" />
          </mxGeometry>
        </mxCell>
        <mxCell id="VVLcE_FTVynFnDO5Wv3X-20" value="" style="rounded=0;whiteSpace=wrap;html=1;" parent="VVLcE_FTVynFnDO5Wv3X-12" vertex="1">
          <mxGeometry x="-300" y="1020" width="60" height="80" as="geometry" />
        </mxCell>
        <mxCell id="VVLcE_FTVynFnDO5Wv3X-21" value="" style="rounded=0;whiteSpace=wrap;html=1;" parent="VVLcE_FTVynFnDO5Wv3X-12" vertex="1">
          <mxGeometry x="-240" y="1020" width="60" height="80" as="geometry" />
        </mxCell>
        <mxCell id="VVLcE_FTVynFnDO5Wv3X-22" value="" style="rounded=0;whiteSpace=wrap;html=1;" parent="VVLcE_FTVynFnDO5Wv3X-12" vertex="1">
          <mxGeometry x="-180" y="1020" width="50" height="80" as="geometry" />
        </mxCell>
        <mxCell id="VVLcE_FTVynFnDO5Wv3X-23" value="" style="rounded=0;whiteSpace=wrap;html=1;" parent="VVLcE_FTVynFnDO5Wv3X-12" vertex="1">
          <mxGeometry x="-130" y="1020" width="50" height="80" as="geometry" />
        </mxCell>
        <mxCell id="VVLcE_FTVynFnDO5Wv3X-24" value="" style="rounded=0;whiteSpace=wrap;html=1;fillColor=#f5f5f5;fontColor=#333333;strokeColor=#666666;" parent="VVLcE_FTVynFnDO5Wv3X-12" vertex="1">
          <mxGeometry x="-350" y="1100" width="50" height="40" as="geometry" />
        </mxCell>
        <mxCell id="VVLcE_FTVynFnDO5Wv3X-25" value="" style="rounded=0;whiteSpace=wrap;html=1;fillColor=#f5f5f5;fontColor=#333333;strokeColor=#666666;" parent="VVLcE_FTVynFnDO5Wv3X-12" vertex="1">
          <mxGeometry x="-300" y="1100" width="60" height="40" as="geometry" />
        </mxCell>
        <mxCell id="VVLcE_FTVynFnDO5Wv3X-26" value="" style="rounded=0;whiteSpace=wrap;html=1;fillColor=#f5f5f5;fontColor=#333333;strokeColor=#666666;" parent="VVLcE_FTVynFnDO5Wv3X-12" vertex="1">
          <mxGeometry x="-130" y="1100" width="50" height="40" as="geometry" />
        </mxCell>
        <mxCell id="VVLcE_FTVynFnDO5Wv3X-27" value="" style="rounded=0;whiteSpace=wrap;html=1;fillColor=#f5f5f5;fontColor=#333333;strokeColor=#666666;" parent="VVLcE_FTVynFnDO5Wv3X-12" vertex="1">
          <mxGeometry x="-180" y="1100" width="50" height="40" as="geometry" />
        </mxCell>
        <mxCell id="VVLcE_FTVynFnDO5Wv3X-28" value="" style="rounded=0;whiteSpace=wrap;html=1;fillColor=#f5f5f5;fontColor=#333333;strokeColor=#666666;" parent="VVLcE_FTVynFnDO5Wv3X-12" vertex="1">
          <mxGeometry x="-240" y="1100" width="60" height="40" as="geometry" />
        </mxCell>
        <mxCell id="VVLcE_FTVynFnDO5Wv3X-29" value="" style="rounded=0;whiteSpace=wrap;html=1;fillColor=#f5f5f5;fontColor=#333333;strokeColor=#666666;" parent="VVLcE_FTVynFnDO5Wv3X-12" vertex="1">
          <mxGeometry x="-400" y="980" width="50" height="40" as="geometry" />
        </mxCell>
        <mxCell id="VVLcE_FTVynFnDO5Wv3X-30" value="" style="rounded=0;whiteSpace=wrap;html=1;fillColor=#f5f5f5;fontColor=#333333;strokeColor=#666666;" parent="VVLcE_FTVynFnDO5Wv3X-12" vertex="1">
          <mxGeometry x="-350" y="980" width="50" height="40" as="geometry" />
        </mxCell>
        <mxCell id="VVLcE_FTVynFnDO5Wv3X-31" value="" style="rounded=0;whiteSpace=wrap;html=1;fillColor=#f5f5f5;fontColor=#333333;strokeColor=#666666;" parent="VVLcE_FTVynFnDO5Wv3X-12" vertex="1">
          <mxGeometry x="-300" y="980" width="60" height="40" as="geometry" />
        </mxCell>
        <mxCell id="VVLcE_FTVynFnDO5Wv3X-32" value="" style="rounded=0;whiteSpace=wrap;html=1;fillColor=#f5f5f5;fontColor=#333333;strokeColor=#666666;" parent="VVLcE_FTVynFnDO5Wv3X-12" vertex="1">
          <mxGeometry x="-130" y="980" width="50" height="40" as="geometry" />
        </mxCell>
        <mxCell id="VVLcE_FTVynFnDO5Wv3X-33" value="" style="rounded=0;whiteSpace=wrap;html=1;fillColor=#f5f5f5;fontColor=#333333;strokeColor=#666666;" parent="VVLcE_FTVynFnDO5Wv3X-12" vertex="1">
          <mxGeometry x="-180" y="980" width="50" height="40" as="geometry" />
        </mxCell>
        <mxCell id="VVLcE_FTVynFnDO5Wv3X-34" value="" style="rounded=0;whiteSpace=wrap;html=1;fillColor=#f5f5f5;fontColor=#333333;strokeColor=#666666;" parent="VVLcE_FTVynFnDO5Wv3X-12" vertex="1">
          <mxGeometry x="-240" y="980" width="60" height="40" as="geometry" />
        </mxCell>
        <mxCell id="VVLcE_FTVynFnDO5Wv3X-35" value="Frutas" style="locked=1;" parent="0" />
        <mxCell id="VVLcE_FTVynFnDO5Wv3X-36" value="" style="rounded=0;whiteSpace=wrap;html=1;fillColor=#f5f5f5;fontColor=#333333;strokeColor=#666666;" parent="VVLcE_FTVynFnDO5Wv3X-35" vertex="1">
          <mxGeometry x="-412.5" y="2000" width="320" height="60" as="geometry" />
        </mxCell>
        <mxCell id="VVLcE_FTVynFnDO5Wv3X-37" value="" style="rounded=0;whiteSpace=wrap;html=1;fillColor=#f5f5f5;fontColor=#333333;strokeColor=#666666;" parent="VVLcE_FTVynFnDO5Wv3X-35" vertex="1">
          <mxGeometry x="-412.5" y="1860" width="320" height="60" as="geometry" />
        </mxCell>
        <mxCell id="VVLcE_FTVynFnDO5Wv3X-44" value="" style="rounded=0;whiteSpace=wrap;html=1;" parent="VVLcE_FTVynFnDO5Wv3X-35" vertex="1">
          <mxGeometry x="-312.5" y="1920" width="120" height="80" as="geometry" />
        </mxCell>
        <mxCell id="VVLcE_FTVynFnDO5Wv3X-48" value="" style="verticalLabelPosition=bottom;verticalAlign=top;html=1;shape=mxgraph.basic.drop;perimeter=centerPerimeter;" parent="VVLcE_FTVynFnDO5Wv3X-35" vertex="1">
          <mxGeometry x="-92.5" y="1965" width="60" height="100" as="geometry" />
        </mxCell>
        <mxCell id="VVLcE_FTVynFnDO5Wv3X-49" value="" style="verticalLabelPosition=bottom;verticalAlign=top;html=1;shape=mxgraph.basic.drop;rotation=-180;perimeter=centerPerimeter;" parent="VVLcE_FTVynFnDO5Wv3X-35" vertex="1">
          <mxGeometry x="-92.5" y="1865" width="60" height="100" as="geometry" />
        </mxCell>
        <mxCell id="VVLcE_FTVynFnDO5Wv3X-50" value="" style="verticalLabelPosition=bottom;verticalAlign=top;html=1;shape=mxgraph.basic.drop;rotation=-140;perimeter=centerPerimeter;" parent="VVLcE_FTVynFnDO5Wv3X-35" vertex="1">
          <mxGeometry x="-62.639999999999986" y="1880.38" width="61.17" height="100" as="geometry" />
        </mxCell>
        <mxCell id="VVLcE_FTVynFnDO5Wv3X-51" value="" style="verticalLabelPosition=bottom;verticalAlign=top;html=1;shape=mxgraph.basic.drop;rotation=-45;perimeter=centerPerimeter;" parent="VVLcE_FTVynFnDO5Wv3X-35" vertex="1">
          <mxGeometry x="-62.639999999999986" y="1945" width="61.17" height="100" as="geometry" />
        </mxCell>
        <mxCell id="VVLcE_FTVynFnDO5Wv3X-52" value="" style="verticalLabelPosition=bottom;verticalAlign=top;html=1;shape=mxgraph.basic.drop;rotation=-90;perimeter=centerPerimeter;" parent="VVLcE_FTVynFnDO5Wv3X-35" vertex="1">
          <mxGeometry x="-40" y="1912.5" width="55" height="100" as="geometry" />
        </mxCell>
        <mxCell id="VVLcE_FTVynFnDO5Wv3X-53" value="" style="verticalLabelPosition=bottom;verticalAlign=top;html=1;shape=mxgraph.basic.drop;rotation=-140;perimeter=centerPerimeter;" parent="VVLcE_FTVynFnDO5Wv3X-35" vertex="1">
          <mxGeometry x="-117.63999999999999" y="1882.69" width="61.17" height="100" as="geometry" />
        </mxCell>
        <mxCell id="VVLcE_FTVynFnDO5Wv3X-54" value="" style="verticalLabelPosition=bottom;verticalAlign=top;html=1;shape=mxgraph.basic.drop;rotation=-45;perimeter=centerPerimeter;" parent="VVLcE_FTVynFnDO5Wv3X-35" vertex="1">
          <mxGeometry x="-113.25" y="1945.49" width="56.03" height="100" as="geometry" />
        </mxCell>
        <mxCell id="VVLcE_FTVynFnDO5Wv3X-55" value="" style="verticalLabelPosition=bottom;verticalAlign=top;html=1;shape=mxgraph.basic.drop;rotation=-90;perimeter=centerPerimeter;" parent="VVLcE_FTVynFnDO5Wv3X-35" vertex="1">
          <mxGeometry x="-95" y="1914.81" width="55" height="100" as="geometry" />
        </mxCell>
        <mxCell id="VVLcE_FTVynFnDO5Wv3X-56" value="" style="verticalLabelPosition=bottom;verticalAlign=top;html=1;shape=mxgraph.basic.drop;perimeter=centerPerimeter;" parent="VVLcE_FTVynFnDO5Wv3X-35" vertex="1">
          <mxGeometry x="-472.5" y="1962.5" width="60" height="100" as="geometry" />
        </mxCell>
        <mxCell id="VVLcE_FTVynFnDO5Wv3X-57" value="" style="verticalLabelPosition=bottom;verticalAlign=top;html=1;shape=mxgraph.basic.drop;rotation=-180;perimeter=centerPerimeter;" parent="VVLcE_FTVynFnDO5Wv3X-35" vertex="1">
          <mxGeometry x="-472.5" y="1862.5" width="60" height="100" as="geometry" />
        </mxCell>
        <mxCell id="VVLcE_FTVynFnDO5Wv3X-58" value="" style="verticalLabelPosition=bottom;verticalAlign=top;html=1;shape=mxgraph.basic.drop;rotation=45;perimeter=centerPerimeter;" parent="VVLcE_FTVynFnDO5Wv3X-35" vertex="1">
          <mxGeometry x="-503.81" y="1942.5" width="61.17" height="100" as="geometry" />
        </mxCell>
        <mxCell id="VVLcE_FTVynFnDO5Wv3X-59" value="" style="verticalLabelPosition=bottom;verticalAlign=top;html=1;shape=mxgraph.basic.drop;rotation=135;perimeter=centerPerimeter;" parent="VVLcE_FTVynFnDO5Wv3X-35" vertex="1">
          <mxGeometry x="-503.81" y="1882.5" width="61.17" height="100" as="geometry" />
        </mxCell>
        <mxCell id="VVLcE_FTVynFnDO5Wv3X-60" value="" style="verticalLabelPosition=bottom;verticalAlign=top;html=1;shape=mxgraph.basic.drop;rotation=90;perimeter=centerPerimeter;" parent="VVLcE_FTVynFnDO5Wv3X-35" vertex="1">
          <mxGeometry x="-520" y="1910" width="55" height="100" as="geometry" />
        </mxCell>
        <mxCell id="VVLcE_FTVynFnDO5Wv3X-61" value="" style="verticalLabelPosition=bottom;verticalAlign=top;html=1;shape=mxgraph.basic.drop;rotation=45;perimeter=centerPerimeter;" parent="VVLcE_FTVynFnDO5Wv3X-35" vertex="1">
          <mxGeometry x="-448.81" y="1942.5" width="61.17" height="100" as="geometry" />
        </mxCell>
        <mxCell id="VVLcE_FTVynFnDO5Wv3X-62" value="" style="verticalLabelPosition=bottom;verticalAlign=top;html=1;shape=mxgraph.basic.drop;rotation=135;perimeter=centerPerimeter;" parent="VVLcE_FTVynFnDO5Wv3X-35" vertex="1">
          <mxGeometry x="-448.81" y="1882.5" width="61.17" height="100" as="geometry" />
        </mxCell>
        <mxCell id="VVLcE_FTVynFnDO5Wv3X-63" value="" style="verticalLabelPosition=bottom;verticalAlign=top;html=1;shape=mxgraph.basic.drop;rotation=90;perimeter=centerPerimeter;" parent="VVLcE_FTVynFnDO5Wv3X-35" vertex="1">
          <mxGeometry x="-465" y="1910" width="55" height="100" as="geometry" />
        </mxCell>
        <mxCell id="VVLcE_FTVynFnDO5Wv3X-64" value="" style="rounded=0;whiteSpace=wrap;html=1;" parent="VVLcE_FTVynFnDO5Wv3X-35" vertex="1">
          <mxGeometry x="-412.5" y="1920" width="100" height="80" as="geometry" />
        </mxCell>
        <mxCell id="VVLcE_FTVynFnDO5Wv3X-65" value="" style="rounded=0;whiteSpace=wrap;html=1;" parent="VVLcE_FTVynFnDO5Wv3X-35" vertex="1">
          <mxGeometry x="-192.5" y="1920" width="100" height="80" as="geometry" />
        </mxCell>
        <mxCell id="Qekaa1nHQT_7iJNQwp1P-61" value="" style="shape=loopLimit;whiteSpace=wrap;html=1;rotation=-90;" vertex="1" parent="VVLcE_FTVynFnDO5Wv3X-35">
          <mxGeometry x="-541.5999999999999" y="1612.5" width="163.12" height="85" as="geometry" />
        </mxCell>
        <mxCell id="Qekaa1nHQT_7iJNQwp1P-62" value="" style="shape=loopLimit;whiteSpace=wrap;html=1;rotation=90;" vertex="1" parent="VVLcE_FTVynFnDO5Wv3X-35">
          <mxGeometry x="-136.54999999999995" y="1612.5" width="163.12" height="85" as="geometry" />
        </mxCell>
        <mxCell id="Qekaa1nHQT_7iJNQwp1P-63" value="" style="rounded=0;whiteSpace=wrap;html=1;fillColor=#f5f5f5;fontColor=#333333;strokeColor=#666666;" vertex="1" parent="VVLcE_FTVynFnDO5Wv3X-35">
          <mxGeometry x="-407.52" y="1370" width="160" height="60" as="geometry" />
        </mxCell>
        <mxCell id="Qekaa1nHQT_7iJNQwp1P-64" value="" style="rounded=0;whiteSpace=wrap;html=1;fillColor=#f5f5f5;fontColor=#333333;strokeColor=#666666;" vertex="1" parent="VVLcE_FTVynFnDO5Wv3X-35">
          <mxGeometry x="-247.51999999999998" y="1370" width="160" height="60" as="geometry" />
        </mxCell>
        <mxCell id="Qekaa1nHQT_7iJNQwp1P-65" value="" style="rounded=0;whiteSpace=wrap;html=1;fillColor=#f5f5f5;fontColor=#333333;strokeColor=#666666;" vertex="1" parent="VVLcE_FTVynFnDO5Wv3X-35">
          <mxGeometry x="-407.52" y="1230" width="160" height="60" as="geometry" />
        </mxCell>
        <mxCell id="Qekaa1nHQT_7iJNQwp1P-66" value="" style="rounded=0;whiteSpace=wrap;html=1;fillColor=#f5f5f5;fontColor=#333333;strokeColor=#666666;" vertex="1" parent="VVLcE_FTVynFnDO5Wv3X-35">
          <mxGeometry x="-247.51999999999998" y="1230" width="160" height="60" as="geometry" />
        </mxCell>
        <mxCell id="Qekaa1nHQT_7iJNQwp1P-67" value="" style="rounded=0;whiteSpace=wrap;html=1;fillColor=#f5f5f5;fontColor=#333333;strokeColor=#666666;" vertex="1" parent="VVLcE_FTVynFnDO5Wv3X-35">
          <mxGeometry x="-417.52" y="1695" width="160" height="60" as="geometry" />
        </mxCell>
        <mxCell id="Qekaa1nHQT_7iJNQwp1P-68" value="" style="rounded=0;whiteSpace=wrap;html=1;fillColor=#f5f5f5;fontColor=#333333;strokeColor=#666666;" vertex="1" parent="VVLcE_FTVynFnDO5Wv3X-35">
          <mxGeometry x="-257.52" y="1695" width="160" height="60" as="geometry" />
        </mxCell>
        <mxCell id="Qekaa1nHQT_7iJNQwp1P-69" value="" style="rounded=0;whiteSpace=wrap;html=1;fillColor=#f5f5f5;fontColor=#333333;strokeColor=#666666;" vertex="1" parent="VVLcE_FTVynFnDO5Wv3X-35">
          <mxGeometry x="-417.52" y="1555" width="160" height="60" as="geometry" />
        </mxCell>
        <mxCell id="Qekaa1nHQT_7iJNQwp1P-70" value="" style="rounded=0;whiteSpace=wrap;html=1;fillColor=#f5f5f5;fontColor=#333333;strokeColor=#666666;" vertex="1" parent="VVLcE_FTVynFnDO5Wv3X-35">
          <mxGeometry x="-257.52" y="1555" width="160" height="60" as="geometry" />
        </mxCell>
        <mxCell id="Qekaa1nHQT_7iJNQwp1P-71" value="" style="rounded=0;whiteSpace=wrap;html=1;" vertex="1" parent="VVLcE_FTVynFnDO5Wv3X-35">
          <mxGeometry x="-417.52" y="1615" width="100" height="80" as="geometry" />
        </mxCell>
        <mxCell id="Qekaa1nHQT_7iJNQwp1P-72" value="" style="rounded=0;whiteSpace=wrap;html=1;" vertex="1" parent="VVLcE_FTVynFnDO5Wv3X-35">
          <mxGeometry x="-317.52" y="1615" width="120" height="80" as="geometry" />
        </mxCell>
        <mxCell id="Qekaa1nHQT_7iJNQwp1P-73" value="" style="rounded=0;whiteSpace=wrap;html=1;" vertex="1" parent="VVLcE_FTVynFnDO5Wv3X-35">
          <mxGeometry x="-197.51999999999998" y="1615" width="100" height="80" as="geometry" />
        </mxCell>
        <mxCell id="Qekaa1nHQT_7iJNQwp1P-74" value="" style="rounded=0;whiteSpace=wrap;html=1;" vertex="1" parent="VVLcE_FTVynFnDO5Wv3X-35">
          <mxGeometry x="-407.52" y="1290" width="100" height="80" as="geometry" />
        </mxCell>
        <mxCell id="Qekaa1nHQT_7iJNQwp1P-75" value="" style="rounded=0;whiteSpace=wrap;html=1;" vertex="1" parent="VVLcE_FTVynFnDO5Wv3X-35">
          <mxGeometry x="-307.52" y="1290" width="120" height="80" as="geometry" />
        </mxCell>
        <mxCell id="Qekaa1nHQT_7iJNQwp1P-76" value="" style="rounded=0;whiteSpace=wrap;html=1;" vertex="1" parent="VVLcE_FTVynFnDO5Wv3X-35">
          <mxGeometry x="-187.51999999999998" y="1290" width="100" height="80" as="geometry" />
        </mxCell>
        <mxCell id="Qekaa1nHQT_7iJNQwp1P-77" value="" style="shape=loopLimit;whiteSpace=wrap;html=1;rotation=-90;" vertex="1" parent="VVLcE_FTVynFnDO5Wv3X-35">
          <mxGeometry x="-531.5699999999999" y="1291.57" width="163.12" height="85" as="geometry" />
        </mxCell>
        <mxCell id="Qekaa1nHQT_7iJNQwp1P-78" value="" style="shape=loopLimit;whiteSpace=wrap;html=1;rotation=90;" vertex="1" parent="VVLcE_FTVynFnDO5Wv3X-35">
          <mxGeometry x="-126.51999999999998" y="1291.57" width="163.12" height="85" as="geometry" />
        </mxCell>
        <mxCell id="VVLcE_FTVynFnDO5Wv3X-68" value="Caixas" style="locked=1;" parent="0" />
        <mxCell id="VVLcE_FTVynFnDO5Wv3X-69" value="" style="shape=ext;double=1;whiteSpace=wrap;html=1;aspect=fixed;" parent="VVLcE_FTVynFnDO5Wv3X-68" vertex="1">
          <mxGeometry x="580" y="970" width="140" height="140" as="geometry" />
        </mxCell>
        <mxCell id="VVLcE_FTVynFnDO5Wv3X-70" value="" style="shape=ext;double=1;whiteSpace=wrap;html=1;aspect=fixed;" parent="VVLcE_FTVynFnDO5Wv3X-68" vertex="1">
          <mxGeometry x="720" y="970" width="140" height="140" as="geometry" />
        </mxCell>
        <mxCell id="VVLcE_FTVynFnDO5Wv3X-71" value="" style="shape=ext;double=1;whiteSpace=wrap;html=1;aspect=fixed;" parent="VVLcE_FTVynFnDO5Wv3X-68" vertex="1">
          <mxGeometry x="580" y="1110" width="140" height="140" as="geometry" />
        </mxCell>
        <mxCell id="VVLcE_FTVynFnDO5Wv3X-72" value="" style="shape=ext;double=1;whiteSpace=wrap;html=1;aspect=fixed;" parent="VVLcE_FTVynFnDO5Wv3X-68" vertex="1">
          <mxGeometry x="720" y="1110" width="140" height="140" as="geometry" />
        </mxCell>
        <mxCell id="IHd3iuG1z7pTJh4wRPOc-1" value="" style="edgeStyle=orthogonalEdgeStyle;rounded=0;orthogonalLoop=1;jettySize=auto;html=1;" parent="VVLcE_FTVynFnDO5Wv3X-68" source="VVLcE_FTVynFnDO5Wv3X-109" target="VVLcE_FTVynFnDO5Wv3X-110" edge="1">
          <mxGeometry relative="1" as="geometry" />
        </mxCell>
        <mxCell id="VVLcE_FTVynFnDO5Wv3X-109" value="" style="shape=ext;double=1;whiteSpace=wrap;html=1;aspect=fixed;" parent="VVLcE_FTVynFnDO5Wv3X-68" vertex="1">
          <mxGeometry x="200" y="1810" width="140" height="140" as="geometry" />
        </mxCell>
        <mxCell id="VVLcE_FTVynFnDO5Wv3X-110" value="" style="shape=ext;double=1;whiteSpace=wrap;html=1;aspect=fixed;" parent="VVLcE_FTVynFnDO5Wv3X-68" vertex="1">
          <mxGeometry x="200" y="1950" width="140" height="140" as="geometry" />
        </mxCell>
        <mxCell id="Qekaa1nHQT_7iJNQwp1P-2" value="" style="shape=ext;double=1;whiteSpace=wrap;html=1;aspect=fixed;" vertex="1" parent="VVLcE_FTVynFnDO5Wv3X-68">
          <mxGeometry x="200" y="1380" width="140" height="140" as="geometry" />
        </mxCell>
        <mxCell id="Qekaa1nHQT_7iJNQwp1P-3" value="" style="shape=ext;double=1;whiteSpace=wrap;html=1;aspect=fixed;" vertex="1" parent="VVLcE_FTVynFnDO5Wv3X-68">
          <mxGeometry x="200" y="1520" width="140" height="140" as="geometry" />
        </mxCell>
        <mxCell id="Qekaa1nHQT_7iJNQwp1P-4" value="" style="shape=ext;double=1;whiteSpace=wrap;html=1;aspect=fixed;" vertex="1" parent="VVLcE_FTVynFnDO5Wv3X-68">
          <mxGeometry x="200" y="990" width="140" height="140" as="geometry" />
        </mxCell>
        <mxCell id="Qekaa1nHQT_7iJNQwp1P-5" value="" style="shape=ext;double=1;whiteSpace=wrap;html=1;aspect=fixed;" vertex="1" parent="VVLcE_FTVynFnDO5Wv3X-68">
          <mxGeometry x="200" y="1130" width="140" height="140" as="geometry" />
        </mxCell>
        <mxCell id="VVLcE_FTVynFnDO5Wv3X-73" value="Ilhas" style="locked=1;" parent="0" />
        <mxCell id="VVLcE_FTVynFnDO5Wv3X-74" style="edgeStyle=orthogonalEdgeStyle;rounded=0;orthogonalLoop=1;jettySize=auto;html=1;exitX=0.5;exitY=0;exitDx=0;exitDy=0;exitPerimeter=0;" parent="VVLcE_FTVynFnDO5Wv3X-73" edge="1">
          <mxGeometry relative="1" as="geometry">
            <mxPoint x="1252" y="910" as="targetPoint" />
            <mxPoint x="1250" y="940" as="sourcePoint" />
          </mxGeometry>
        </mxCell>
        <mxCell id="VVLcE_FTVynFnDO5Wv3X-78" value="" style="shape=ext;double=1;whiteSpace=wrap;html=1;aspect=fixed;" parent="VVLcE_FTVynFnDO5Wv3X-73" vertex="1">
          <mxGeometry x="990" y="1620" width="220" height="220" as="geometry" />
        </mxCell>
        <mxCell id="VVLcE_FTVynFnDO5Wv3X-79" value="" style="shape=ext;double=1;whiteSpace=wrap;html=1;aspect=fixed;" parent="VVLcE_FTVynFnDO5Wv3X-73" vertex="1">
          <mxGeometry x="990" y="1920" width="220" height="220" as="geometry" />
        </mxCell>
        <mxCell id="VVLcE_FTVynFnDO5Wv3X-80" value="" style="shape=ext;double=1;whiteSpace=wrap;html=1;aspect=fixed;" parent="VVLcE_FTVynFnDO5Wv3X-73" vertex="1">
          <mxGeometry x="610" y="1310" width="220" height="220" as="geometry" />
        </mxCell>
        <mxCell id="VVLcE_FTVynFnDO5Wv3X-112" value="" style="shape=ext;double=1;whiteSpace=wrap;html=1;aspect=fixed;" parent="VVLcE_FTVynFnDO5Wv3X-73" vertex="1">
          <mxGeometry x="600" y="1920" width="220" height="220" as="geometry" />
        </mxCell>
        <mxCell id="VVLcE_FTVynFnDO5Wv3X-81" value="Legumes" style="locked=1;" parent="0" />
        <mxCell id="VVLcE_FTVynFnDO5Wv3X-82" value="" style="shape=loopLimit;whiteSpace=wrap;html=1;rotation=-90;" parent="VVLcE_FTVynFnDO5Wv3X-81" vertex="1">
          <mxGeometry x="1360.92" y="1657.5" width="163.12" height="85" as="geometry" />
        </mxCell>
        <mxCell id="VVLcE_FTVynFnDO5Wv3X-83" value="" style="shape=loopLimit;whiteSpace=wrap;html=1;rotation=90;" parent="VVLcE_FTVynFnDO5Wv3X-81" vertex="1">
          <mxGeometry x="1765.97" y="1657.5" width="163.12" height="85" as="geometry" />
        </mxCell>
        <mxCell id="VVLcE_FTVynFnDO5Wv3X-84" value="" style="shape=loopLimit;whiteSpace=wrap;html=1;rotation=-90;" parent="VVLcE_FTVynFnDO5Wv3X-81" vertex="1">
          <mxGeometry x="1370.91" y="1017.5" width="163.12" height="85" as="geometry" />
        </mxCell>
        <mxCell id="VVLcE_FTVynFnDO5Wv3X-85" value="" style="shape=loopLimit;whiteSpace=wrap;html=1;rotation=90;" parent="VVLcE_FTVynFnDO5Wv3X-81" vertex="1">
          <mxGeometry x="1775.96" y="1017.5" width="163.12" height="85" as="geometry" />
        </mxCell>
        <mxCell id="VVLcE_FTVynFnDO5Wv3X-86" value="" style="rounded=0;whiteSpace=wrap;html=1;fillColor=#f5f5f5;fontColor=#333333;strokeColor=#666666;" parent="VVLcE_FTVynFnDO5Wv3X-81" vertex="1">
          <mxGeometry x="1495" y="1100" width="160" height="60" as="geometry" />
        </mxCell>
        <mxCell id="VVLcE_FTVynFnDO5Wv3X-87" value="" style="rounded=0;whiteSpace=wrap;html=1;fillColor=#f5f5f5;fontColor=#333333;strokeColor=#666666;" parent="VVLcE_FTVynFnDO5Wv3X-81" vertex="1">
          <mxGeometry x="1655" y="1100" width="160" height="60" as="geometry" />
        </mxCell>
        <mxCell id="VVLcE_FTVynFnDO5Wv3X-88" value="" style="rounded=0;whiteSpace=wrap;html=1;fillColor=#f5f5f5;fontColor=#333333;strokeColor=#666666;" parent="VVLcE_FTVynFnDO5Wv3X-81" vertex="1">
          <mxGeometry x="1495" y="960" width="160" height="60" as="geometry" />
        </mxCell>
        <mxCell id="VVLcE_FTVynFnDO5Wv3X-89" value="" style="rounded=0;whiteSpace=wrap;html=1;fillColor=#f5f5f5;fontColor=#333333;strokeColor=#666666;" parent="VVLcE_FTVynFnDO5Wv3X-81" vertex="1">
          <mxGeometry x="1655" y="960" width="160" height="60" as="geometry" />
        </mxCell>
        <mxCell id="VVLcE_FTVynFnDO5Wv3X-90" value="" style="rounded=0;whiteSpace=wrap;html=1;fillColor=#f5f5f5;fontColor=#333333;strokeColor=#666666;" parent="VVLcE_FTVynFnDO5Wv3X-81" vertex="1">
          <mxGeometry x="1495" y="1415" width="160" height="60" as="geometry" />
        </mxCell>
        <mxCell id="VVLcE_FTVynFnDO5Wv3X-91" value="" style="rounded=0;whiteSpace=wrap;html=1;fillColor=#f5f5f5;fontColor=#333333;strokeColor=#666666;" parent="VVLcE_FTVynFnDO5Wv3X-81" vertex="1">
          <mxGeometry x="1655" y="1415" width="160" height="60" as="geometry" />
        </mxCell>
        <mxCell id="VVLcE_FTVynFnDO5Wv3X-92" value="" style="rounded=0;whiteSpace=wrap;html=1;fillColor=#f5f5f5;fontColor=#333333;strokeColor=#666666;" parent="VVLcE_FTVynFnDO5Wv3X-81" vertex="1">
          <mxGeometry x="1495" y="1275" width="160" height="60" as="geometry" />
        </mxCell>
        <mxCell id="VVLcE_FTVynFnDO5Wv3X-93" value="" style="rounded=0;whiteSpace=wrap;html=1;fillColor=#f5f5f5;fontColor=#333333;strokeColor=#666666;" parent="VVLcE_FTVynFnDO5Wv3X-81" vertex="1">
          <mxGeometry x="1655" y="1275" width="160" height="60" as="geometry" />
        </mxCell>
        <mxCell id="VVLcE_FTVynFnDO5Wv3X-94" value="" style="rounded=0;whiteSpace=wrap;html=1;fillColor=#f5f5f5;fontColor=#333333;strokeColor=#666666;" parent="VVLcE_FTVynFnDO5Wv3X-81" vertex="1">
          <mxGeometry x="1485" y="1740" width="160" height="60" as="geometry" />
        </mxCell>
        <mxCell id="VVLcE_FTVynFnDO5Wv3X-95" value="" style="rounded=0;whiteSpace=wrap;html=1;fillColor=#f5f5f5;fontColor=#333333;strokeColor=#666666;" parent="VVLcE_FTVynFnDO5Wv3X-81" vertex="1">
          <mxGeometry x="1645" y="1740" width="160" height="60" as="geometry" />
        </mxCell>
        <mxCell id="VVLcE_FTVynFnDO5Wv3X-96" value="" style="rounded=0;whiteSpace=wrap;html=1;fillColor=#f5f5f5;fontColor=#333333;strokeColor=#666666;" parent="VVLcE_FTVynFnDO5Wv3X-81" vertex="1">
          <mxGeometry x="1485" y="1600" width="160" height="60" as="geometry" />
        </mxCell>
        <mxCell id="VVLcE_FTVynFnDO5Wv3X-97" value="" style="rounded=0;whiteSpace=wrap;html=1;fillColor=#f5f5f5;fontColor=#333333;strokeColor=#666666;" parent="VVLcE_FTVynFnDO5Wv3X-81" vertex="1">
          <mxGeometry x="1645" y="1600" width="160" height="60" as="geometry" />
        </mxCell>
        <mxCell id="VVLcE_FTVynFnDO5Wv3X-98" value="" style="rounded=0;whiteSpace=wrap;html=1;" parent="VVLcE_FTVynFnDO5Wv3X-81" vertex="1">
          <mxGeometry x="1485" y="1660" width="100" height="80" as="geometry" />
        </mxCell>
        <mxCell id="VVLcE_FTVynFnDO5Wv3X-99" value="" style="rounded=0;whiteSpace=wrap;html=1;" parent="VVLcE_FTVynFnDO5Wv3X-81" vertex="1">
          <mxGeometry x="1585" y="1660" width="120" height="80" as="geometry" />
        </mxCell>
        <mxCell id="VVLcE_FTVynFnDO5Wv3X-100" value="" style="rounded=0;whiteSpace=wrap;html=1;" parent="VVLcE_FTVynFnDO5Wv3X-81" vertex="1">
          <mxGeometry x="1705" y="1660" width="100" height="80" as="geometry" />
        </mxCell>
        <mxCell id="VVLcE_FTVynFnDO5Wv3X-101" value="" style="rounded=0;whiteSpace=wrap;html=1;" parent="VVLcE_FTVynFnDO5Wv3X-81" vertex="1">
          <mxGeometry x="1495" y="1335" width="100" height="80" as="geometry" />
        </mxCell>
        <mxCell id="VVLcE_FTVynFnDO5Wv3X-102" value="" style="rounded=0;whiteSpace=wrap;html=1;" parent="VVLcE_FTVynFnDO5Wv3X-81" vertex="1">
          <mxGeometry x="1595" y="1335" width="120" height="80" as="geometry" />
        </mxCell>
        <mxCell id="VVLcE_FTVynFnDO5Wv3X-103" value="" style="rounded=0;whiteSpace=wrap;html=1;" parent="VVLcE_FTVynFnDO5Wv3X-81" vertex="1">
          <mxGeometry x="1715" y="1335" width="100" height="80" as="geometry" />
        </mxCell>
        <mxCell id="VVLcE_FTVynFnDO5Wv3X-104" value="" style="rounded=0;whiteSpace=wrap;html=1;" parent="VVLcE_FTVynFnDO5Wv3X-81" vertex="1">
          <mxGeometry x="1495" y="1020" width="100" height="80" as="geometry" />
        </mxCell>
        <mxCell id="VVLcE_FTVynFnDO5Wv3X-105" value="" style="rounded=0;whiteSpace=wrap;html=1;" parent="VVLcE_FTVynFnDO5Wv3X-81" vertex="1">
          <mxGeometry x="1595" y="1020" width="120" height="80" as="geometry" />
        </mxCell>
        <mxCell id="VVLcE_FTVynFnDO5Wv3X-106" value="" style="rounded=0;whiteSpace=wrap;html=1;" parent="VVLcE_FTVynFnDO5Wv3X-81" vertex="1">
          <mxGeometry x="1715" y="1020" width="100" height="80" as="geometry" />
        </mxCell>
        <mxCell id="VVLcE_FTVynFnDO5Wv3X-107" value="" style="shape=loopLimit;whiteSpace=wrap;html=1;rotation=-90;" parent="VVLcE_FTVynFnDO5Wv3X-81" vertex="1">
          <mxGeometry x="1370.95" y="1336.57" width="163.12" height="85" as="geometry" />
        </mxCell>
        <mxCell id="VVLcE_FTVynFnDO5Wv3X-108" value="" style="shape=loopLimit;whiteSpace=wrap;html=1;rotation=90;" parent="VVLcE_FTVynFnDO5Wv3X-81" vertex="1">
          <mxGeometry x="1776" y="1336.57" width="163.12" height="85" as="geometry" />
        </mxCell>
        <mxCell id="VVLcE_FTVynFnDO5Wv3X-114" value="Outros" style="locked=1;" parent="0" />
        <mxCell id="VVLcE_FTVynFnDO5Wv3X-115" value="" style="shape=loopLimit;whiteSpace=wrap;html=1;rotation=-90;" parent="VVLcE_FTVynFnDO5Wv3X-114" vertex="1">
          <mxGeometry x="1350" y="1997.5" width="163.12" height="85" as="geometry" />
        </mxCell>
        <mxCell id="VVLcE_FTVynFnDO5Wv3X-116" value="" style="shape=loopLimit;whiteSpace=wrap;html=1;rotation=90;" parent="VVLcE_FTVynFnDO5Wv3X-114" vertex="1">
          <mxGeometry x="1755.05" y="1997.5" width="163.12" height="85" as="geometry" />
        </mxCell>
        <mxCell id="VVLcE_FTVynFnDO5Wv3X-117" value="" style="rounded=0;whiteSpace=wrap;html=1;fillColor=#f5f5f5;fontColor=#333333;strokeColor=#666666;" parent="VVLcE_FTVynFnDO5Wv3X-114" vertex="1">
          <mxGeometry x="1474.08" y="2040" width="160" height="80" as="geometry" />
        </mxCell>
        <mxCell id="VVLcE_FTVynFnDO5Wv3X-118" value="" style="rounded=0;whiteSpace=wrap;html=1;fillColor=#f5f5f5;fontColor=#333333;strokeColor=#666666;" parent="VVLcE_FTVynFnDO5Wv3X-114" vertex="1">
          <mxGeometry x="1634.08" y="2040" width="160" height="80" as="geometry" />
        </mxCell>
        <mxCell id="VVLcE_FTVynFnDO5Wv3X-119" value="" style="rounded=0;whiteSpace=wrap;html=1;fillColor=#f5f5f5;fontColor=#333333;strokeColor=#666666;" parent="VVLcE_FTVynFnDO5Wv3X-114" vertex="1">
          <mxGeometry x="1474.08" y="1960" width="160" height="80" as="geometry" />
        </mxCell>
        <mxCell id="VVLcE_FTVynFnDO5Wv3X-120" value="" style="rounded=0;whiteSpace=wrap;html=1;fillColor=#f5f5f5;fontColor=#333333;strokeColor=#666666;" parent="VVLcE_FTVynFnDO5Wv3X-114" vertex="1">
          <mxGeometry x="1634.08" y="1960" width="160" height="80" as="geometry" />
        </mxCell>
      </root>
    </mxGraphModel>
  </diagram>
</mxfile>
